<svg id="visual" viewBox="0 0 900 150" width="900" height="150" xmlns="http://www.w3.org/2000/svg" xmlns:xlink="http://www.w3.org/1999/xlink" version="1.1"><path d="M0 105L6.5 103.7C13 102.3 26 99.7 39 97.8C52 96 65 95 78 96.2C91 97.3 104 100.7 117.2 99.3C130.3 98 143.7 92 156.8 91.5C170 91 183 96 196 96.7C209 97.3 222 93.7 235 92.5C248 91.3 261 92.7 274 94.8C287 97 300 100 313 98.7C326 97.3 339 91.7 352 90C365 88.3 378 90.7 391 94.3C404 98 417 103 430.2 106.2C443.3 109.3 456.7 110.7 469.8 110.2C483 109.7 496 107.3 509 103.2C522 99 535 93 548 90.5C561 88 574 89 587 87.7C600 86.3 613 82.7 626 82.5C639 82.3 652 85.7 665 90.5C678 95.3 691 101.7 704 99.7C717 97.7 730 87.3 743.2 82.3C756.3 77.3 769.7 77.7 782.8 80.5C796 83.3 809 88.7 822 88.7C835 88.7 848 83.3 861 80.2C874 77 887 76 893.5 75.5L900 75L900 0L893.5 0C887 0 874 0 861 0C848 0 835 0 822 0C809 0 796 0 782.8 0C769.7 0 756.3 0 743.2 0C730 0 717 0 704 0C691 0 678 0 665 0C652 0 639 0 626 0C613 0 600 0 587 0C574 0 561 0 548 0C535 0 522 0 509 0C496 0 483 0 469.8 0C456.7 0 443.3 0 430.2 0C417 0 404 0 391 0C378 0 365 0 352 0C339 0 326 0 313 0C300 0 287 0 274 0C261 0 248 0 235 0C222 0 209 0 196 0C183 0 170 0 156.8 0C143.7 0 130.3 0 117.2 0C104 0 91 0 78 0C65 0 52 0 39 0C26 0 13 0 6.5 0L0 0Z" fill="#f16d63"></path><path d="M0 72L6.5 71.7C13 71.3 26 70.7 39 74.5C52 78.3 65 86.7 78 89.3C91 92 104 89 117.2 89.3C130.3 89.7 143.7 93.3 156.8 90.3C170 87.3 183 77.7 196 73C209 68.3 222 68.7 235 70.7C248 72.7 261 76.3 274 78.7C287 81 300 82 313 81.3C326 80.7 339 78.3 352 79.2C365 80 378 84 391 83.8C404 83.7 417 79.3 430.2 76.3C443.3 73.3 456.7 71.7 469.8 71.7C483 71.7 496 73.3 509 74.8C522 76.3 535 77.7 548 79.2C561 80.7 574 82.3 587 84C600 85.7 613 87.3 626 84.7C639 82 652 75 665 74.5C678 74 691 80 704 83.5C717 87 730 88 743.2 84.8C756.3 81.7 769.7 74.3 782.8 70.7C796 67 809 67 822 67C835 67 848 67 861 71C874 75 887 83 893.5 87L900 91L900 0L893.5 0C887 0 874 0 861 0C848 0 835 0 822 0C809 0 796 0 782.8 0C769.7 0 756.3 0 743.2 0C730 0 717 0 704 0C691 0 678 0 665 0C652 0 639 0 626 0C613 0 600 0 587 0C574 0 561 0 548 0C535 0 522 0 509 0C496 0 483 0 469.8 0C456.7 0 443.3 0 430.2 0C417 0 404 0 391 0C378 0 365 0 352 0C339 0 326 0 313 0C300 0 287 0 274 0C261 0 248 0 235 0C222 0 209 0 196 0C183 0 170 0 156.8 0C143.7 0 130.3 0 117.2 0C104 0 91 0 78 0C65 0 52 0 39 0C26 0 13 0 6.5 0L0 0Z" fill="#f37d6b"></path><path d="M0 71L6.5 73.3C13 75.7 26 80.3 39 83.8C52 87.3 65 89.7 78 90.2C91 90.7 104 89.3 117.2 89.3C130.3 89.3 143.7 90.7 156.8 87.2C170 83.7 183 75.3 196 70.2C209 65 222 63 235 65.7C248 68.3 261 75.7 274 79.2C287 82.7 300 82.3 313 80C326 77.7 339 73.3 352 71.2C365 69 378 69 391 72.5C404 76 417 83 430.2 85.7C443.3 88.3 456.7 86.7 469.8 86.2C483 85.7 496 86.3 509 86.7C522 87 535 87 548 84C561 81 574 75 587 75.2C600 75.3 613 81.7 626 82.8C639 84 652 80 665 78.7C678 77.3 691 78.7 704 80.5C717 82.3 730 84.7 743.2 86C756.3 87.3 769.7 87.7 782.8 86.5C796 85.3 809 82.7 822 78.5C835 74.3 848 68.7 861 68.5C874 68.3 887 73.7 893.5 76.3L900 79L900 0L893.5 0C887 0 874 0 861 0C848 0 835 0 822 0C809 0 796 0 782.8 0C769.7 0 756.3 0 743.2 0C730 0 717 0 704 0C691 0 678 0 665 0C652 0 639 0 626 0C613 0 600 0 587 0C574 0 561 0 548 0C535 0 522 0 509 0C496 0 483 0 469.8 0C456.7 0 443.3 0 430.2 0C417 0 404 0 391 0C378 0 365 0 352 0C339 0 326 0 313 0C300 0 287 0 274 0C261 0 248 0 235 0C222 0 209 0 196 0C183 0 170 0 156.8 0C143.7 0 130.3 0 117.2 0C104 0 91 0 78 0C65 0 52 0 39 0C26 0 13 0 6.5 0L0 0Z" fill="#f58c75"></path><path d="M0 79L6.5 74.7C13 70.3 26 61.7 39 60.5C52 59.3 65 65.7 78 68.5C91 71.3 104 70.7 117.2 71.5C130.3 72.3 143.7 74.7 156.8 76.5C170 78.3 183 79.7 196 79.7C209 79.7 222 78.3 235 75.2C248 72 261 67 274 66C287 65 300 68 313 70.2C326 72.3 339 73.7 352 75C365 76.3 378 77.7 391 75.8C404 74 417 69 430.2 67.7C443.3 66.3 456.7 68.7 469.8 66.7C483 64.7 496 58.3 509 56.3C522 54.3 535 56.7 548 61C561 65.3 574 71.7 587 74.3C600 77 613 76 626 73.2C639 70.3 652 65.7 665 65.2C678 64.7 691 68.3 704 68.3C717 68.3 730 64.7 743.2 64.5C756.3 64.3 769.7 67.7 782.8 67.8C796 68 809 65 822 62C835 59 848 56 861 57.3C874 58.7 887 64.3 893.5 67.2L900 70L900 0L893.5 0C887 0 874 0 861 0C848 0 835 0 822 0C809 0 796 0 782.8 0C769.7 0 756.3 0 743.2 0C730 0 717 0 704 0C691 0 678 0 665 0C652 0 639 0 626 0C613 0 600 0 587 0C574 0 561 0 548 0C535 0 522 0 509 0C496 0 483 0 469.8 0C456.7 0 443.3 0 430.2 0C417 0 404 0 391 0C378 0 365 0 352 0C339 0 326 0 313 0C300 0 287 0 274 0C261 0 248 0 235 0C222 0 209 0 196 0C183 0 170 0 156.8 0C143.7 0 130.3 0 117.2 0C104 0 91 0 78 0C65 0 52 0 39 0C26 0 13 0 6.5 0L0 0Z" fill="#f79a7f"></path><path d="M0 61L6.5 62.5C13 64 26 67 39 66.2C52 65.3 65 60.7 78 59.7C91 58.7 104 61.3 117.2 59.7C130.3 58 143.7 52 156.8 49.7C170 47.3 183 48.7 196 50.8C209 53 222 56 235 56.3C248 56.7 261 54.3 274 52.3C287 50.3 300 48.7 313 48.3C326 48 339 49 352 51.8C365 54.7 378 59.3 391 62.3C404 65.3 417 66.7 430.2 67.3C443.3 68 456.7 68 469.8 65.8C483 63.7 496 59.3 509 58C522 56.7 535 58.3 548 59C561 59.7 574 59.3 587 57.8C600 56.3 613 53.7 626 51.8C639 50 652 49 665 49C678 49 691 50 704 51.5C717 53 730 55 743.2 56.7C756.3 58.3 769.7 59.7 782.8 61C796 62.3 809 63.7 822 61.2C835 58.7 848 52.3 861 52.7C874 53 887 60 893.5 63.5L900 67L900 0L893.5 0C887 0 874 0 861 0C848 0 835 0 822 0C809 0 796 0 782.8 0C769.7 0 756.3 0 743.2 0C730 0 717 0 704 0C691 0 678 0 665 0C652 0 639 0 626 0C613 0 600 0 587 0C574 0 561 0 548 0C535 0 522 0 509 0C496 0 483 0 469.8 0C456.7 0 443.3 0 430.2 0C417 0 404 0 391 0C378 0 365 0 352 0C339 0 326 0 313 0C300 0 287 0 274 0C261 0 248 0 235 0C222 0 209 0 196 0C183 0 170 0 156.8 0C143.7 0 130.3 0 117.2 0C104 0 91 0 78 0C65 0 52 0 39 0C26 0 13 0 6.5 0L0 0Z" fill="#f8a88b"></path><path d="M0 52L6.5 52.2C13 52.3 26 52.7 39 53C52 53.3 65 53.7 78 53C91 52.3 104 50.7 117.2 48.2C130.3 45.7 143.7 42.3 156.8 40.7C170 39 183 39 196 39.8C209 40.7 222 42.3 235 44.8C248 47.3 261 50.7 274 50.5C287 50.3 300 46.7 313 43.7C326 40.7 339 38.3 352 41.2C365 44 378 52 391 53.7C404 55.3 417 50.7 430.2 47C443.3 43.3 456.7 40.7 469.8 40.8C483 41 496 44 509 46.7C522 49.3 535 51.7 548 51C561 50.3 574 46.7 587 46.2C600 45.7 613 48.3 626 51.2C639 54 652 57 665 54.5C678 52 691 44 704 42.2C717 40.3 730 44.7 743.2 47C756.3 49.3 769.7 49.7 782.8 51.3C796 53 809 56 822 56.7C835 57.3 848 55.7 861 54.5C874 53.3 887 52.7 893.5 52.3L900 52L900 0L893.5 0C887 0 874 0 861 0C848 0 835 0 822 0C809 0 796 0 782.8 0C769.7 0 756.3 0 743.2 0C730 0 717 0 704 0C691 0 678 0 665 0C652 0 639 0 626 0C613 0 600 0 587 0C574 0 561 0 548 0C535 0 522 0 509 0C496 0 483 0 469.8 0C456.7 0 443.3 0 430.2 0C417 0 404 0 391 0C378 0 365 0 352 0C339 0 326 0 313 0C300 0 287 0 274 0C261 0 248 0 235 0C222 0 209 0 196 0C183 0 170 0 156.8 0C143.7 0 130.3 0 117.2 0C104 0 91 0 78 0C65 0 52 0 39 0C26 0 13 0 6.5 0L0 0Z" fill="#fab699"></path><path d="M0 35L6.5 36C13 37 26 39 39 40.2C52 41.3 65 41.7 78 41.3C91 41 104 40 117.2 39.3C130.3 38.7 143.7 38.3 156.8 38.5C170 38.7 183 39.3 196 40.2C209 41 222 42 235 41C248 40 261 37 274 37.5C287 38 300 42 313 41.5C326 41 339 36 352 35.8C365 35.7 378 40.3 391 42.7C404 45 417 45 430.2 44.3C443.3 43.7 456.7 42.3 469.8 41C483 39.7 496 38.3 509 36.7C522 35 535 33 548 33.2C561 33.3 574 35.7 587 36.5C600 37.3 613 36.7 626 38.3C639 40 652 44 665 43C678 42 691 36 704 34.3C717 32.7 730 35.3 743.2 35.5C756.3 35.7 769.7 33.3 782.8 34.7C796 36 809 41 822 41.2C835 41.3 848 36.7 861 34.3C874 32 887 32 893.5 32L900 32L900 0L893.5 0C887 0 874 0 861 0C848 0 835 0 822 0C809 0 796 0 782.8 0C769.7 0 756.3 0 743.2 0C730 0 717 0 704 0C691 0 678 0 665 0C652 0 639 0 626 0C613 0 600 0 587 0C574 0 561 0 548 0C535 0 522 0 509 0C496 0 483 0 469.8 0C456.7 0 443.3 0 430.2 0C417 0 404 0 391 0C378 0 365 0 352 0C339 0 326 0 313 0C300 0 287 0 274 0C261 0 248 0 235 0C222 0 209 0 196 0C183 0 170 0 156.8 0C143.7 0 130.3 0 117.2 0C104 0 91 0 78 0C65 0 52 0 39 0C26 0 13 0 6.5 0L0 0Z" fill="#fbc3a8"></path><path d="M0 21L6.5 21.5C13 22 26 23 39 23.3C52 23.7 65 23.3 78 23.7C91 24 104 25 117.2 24.8C130.3 24.7 143.7 23.3 156.8 24C170 24.7 183 27.3 196 28.7C209 30 222 30 235 30.5C248 31 261 32 274 31.3C287 30.7 300 28.3 313 26.7C326 25 339 24 352 24.5C365 25 378 27 391 29.2C404 31.3 417 33.7 430.2 34.5C443.3 35.3 456.7 34.7 469.8 33.8C483 33 496 32 509 31.8C522 31.7 535 32.3 548 32.8C561 33.3 574 33.7 587 34C600 34.3 613 34.7 626 34C639 33.3 652 31.7 665 30C678 28.3 691 26.7 704 25.7C717 24.7 730 24.3 743.2 24.3C756.3 24.3 769.7 24.7 782.8 27C796 29.3 809 33.7 822 34.7C835 35.7 848 33.3 861 31.2C874 29 887 27 893.5 26L900 25L900 0L893.5 0C887 0 874 0 861 0C848 0 835 0 822 0C809 0 796 0 782.8 0C769.7 0 756.3 0 743.2 0C730 0 717 0 704 0C691 0 678 0 665 0C652 0 639 0 626 0C613 0 600 0 587 0C574 0 561 0 548 0C535 0 522 0 509 0C496 0 483 0 469.8 0C456.7 0 443.3 0 430.2 0C417 0 404 0 391 0C378 0 365 0 352 0C339 0 326 0 313 0C300 0 287 0 274 0C261 0 248 0 235 0C222 0 209 0 196 0C183 0 170 0 156.8 0C143.7 0 130.3 0 117.2 0C104 0 91 0 78 0C65 0 52 0 39 0C26 0 13 0 6.5 0L0 0Z" fill="#fcd0b7"></path><path d="M0 20L6.5 20.5C13 21 26 22 39 21.3C52 20.7 65 18.3 78 17.3C91 16.3 104 16.7 117.2 17C130.3 17.3 143.7 17.7 156.8 17.2C170 16.7 183 15.3 196 16.7C209 18 222 22 235 23.5C248 25 261 24 274 23.3C287 22.7 300 22.3 313 22.3C326 22.3 339 22.7 352 21.8C365 21 378 19 391 17.8C404 16.7 417 16.3 430.2 16.2C443.3 16 456.7 16 469.8 17.2C483 18.3 496 20.7 509 22C522 23.3 535 23.7 548 23.3C561 23 574 22 587 20.8C600 19.7 613 18.3 626 18C639 17.7 652 18.3 665 18.2C678 18 691 17 704 18.5C717 20 730 24 743.2 24C756.3 24 769.7 20 782.8 19C796 18 809 20 822 20.3C835 20.7 848 19.3 861 19.3C874 19.3 887 20.7 893.5 21.3L900 22L900 0L893.5 0C887 0 874 0 861 0C848 0 835 0 822 0C809 0 796 0 782.8 0C769.7 0 756.3 0 743.2 0C730 0 717 0 704 0C691 0 678 0 665 0C652 0 639 0 626 0C613 0 600 0 587 0C574 0 561 0 548 0C535 0 522 0 509 0C496 0 483 0 469.8 0C456.7 0 443.3 0 430.2 0C417 0 404 0 391 0C378 0 365 0 352 0C339 0 326 0 313 0C300 0 287 0 274 0C261 0 248 0 235 0C222 0 209 0 196 0C183 0 170 0 156.8 0C143.7 0 130.3 0 117.2 0C104 0 91 0 78 0C65 0 52 0 39 0C26 0 13 0 6.5 0L0 0Z" fill="#feddc8"></path><path d="M0 16L6.5 14.8C13 13.7 26 11.3 39 11.3C52 11.3 65 13.7 78 13.5C91 13.3 104 10.7 117.2 9.5C130.3 8.3 143.7 8.7 156.8 9.8C170 11 183 13 196 12.7C209 12.3 222 9.7 235 9.3C248 9 261 11 274 12C287 13 300 13 313 12.3C326 11.7 339 10.3 352 9.3C365 8.3 378 7.7 391 7.3C404 7 417 7 430.2 8.5C443.3 10 456.7 13 469.8 14.3C483 15.7 496 15.3 509 14.5C522 13.7 535 12.3 548 11.2C561 10 574 9 587 8.8C600 8.7 613 9.3 626 9.8C639 10.3 652 10.7 665 11.7C678 12.7 691 14.3 704 13.5C717 12.7 730 9.3 743.2 8.3C756.3 7.3 769.7 8.7 782.8 10C796 11.3 809 12.7 822 12.8C835 13 848 12 861 12.5C874 13 887 15 893.5 16L900 17L900 0L893.5 0C887 0 874 0 861 0C848 0 835 0 822 0C809 0 796 0 782.8 0C769.7 0 756.3 0 743.2 0C730 0 717 0 704 0C691 0 678 0 665 0C652 0 639 0 626 0C613 0 600 0 587 0C574 0 561 0 548 0C535 0 522 0 509 0C496 0 483 0 469.8 0C456.7 0 443.3 0 430.2 0C417 0 404 0 391 0C378 0 365 0 352 0C339 0 326 0 313 0C300 0 287 0 274 0C261 0 248 0 235 0C222 0 209 0 196 0C183 0 170 0 156.8 0C143.7 0 130.3 0 117.2 0C104 0 91 0 78 0C65 0 52 0 39 0C26 0 13 0 6.5 0L0 0Z" fill="#ffe9da"></path></svg>