<svg id="visual" viewBox="0 0 900 600" width="900" height="600" xmlns="http://www.w3.org/2000/svg" xmlns:xlink="http://www.w3.org/1999/xlink" version="1.1"><path d="M0 215L25 239C50 263 100 311 150 313.5C200 316 250 273 300 266.2C350 259.3 400 288.7 450 313.8C500 339 550 360 600 366.8C650 373.7 700 366.3 750 341.8C800 317.3 850 275.7 875 254.8L900 234L900 0L875 0C850 0 800 0 750 0C700 0 650 0 600 0C550 0 500 0 450 0C400 0 350 0 300 0C250 0 200 0 150 0C100 0 50 0 25 0L0 0Z" fill="#0066FF" stroke-linecap="round" stroke-linejoin="miter"></path></svg>